<?xml version="1.0" standalone="no"?>
<!DOCTYPE svg PUBLIC "-//W3C//DTD SVG 20010904//EN"
 "http://www.w3.org/TR/2001/REC-SVG-20010904/DTD/svg10.dtd">
<svg version="1.0" xmlns="http://www.w3.org/2000/svg"
 width="1040.000000pt" height="1040.000000pt" viewBox="0 0 1040.000000 1040.000000"
 preserveAspectRatio="xMidYMid meet">
<metadata>
Created by potrace 1.14, written by Peter Selinger 2001-2017
</metadata>
<g transform="translate(0.000000,1040.000000) scale(0.100000,-0.100000)"
fill="#000000" stroke="none">
<path d="M3749 8336 c-2 -2 -38 -6 -79 -9 -79 -6 -224 -31 -276 -48 -17 -5
-40 -11 -50 -14 -41 -8 -163 -58 -231 -95 -118 -63 -221 -147 -318 -260 -41
-48 -106 -144 -122 -180 -4 -8 -10 -17 -14 -20 -11 -8 -91 -176 -124 -260 -16
-41 -32 -80 -37 -86 -4 -6 -5 -14 -1 -17 3 -4 331 -7 727 -7 397 0 731 -3 743
-6 20 -6 38 -41 36 -74 -1 -8 -10 -39 -21 -67 -11 -29 -18 -53 -16 -53 2 0 -7
-24 -20 -54 -13 -30 -27 -69 -31 -87 -4 -18 -11 -40 -16 -49 -7 -13 -69 -197
-75 -225 -2 -5 -17 -52 -35 -102 l-31 -93 -267 -1 c-146 0 -291 -2 -321 -4
-104 -7 -185 -15 -210 -20 -14 -3 -41 -8 -60 -11 -77 -14 -106 -21 -190 -46
-41 -12 -76 -26 -78 -30 -2 -4 -10 -8 -19 -8 -26 0 -213 -99 -213 -112 0 -5
-6 -8 -13 -8 -23 0 -170 -143 -235 -229 -34 -45 -62 -83 -62 -86 0 -2 -15 -28
-33 -57 -59 -94 -181 -370 -169 -382 3 -3 333 -6 734 -6 710 0 729 0 745 -20
9 -10 18 -28 20 -39 1 -10 -74 -248 -168 -527 -94 -280 -172 -516 -174 -524
-2 -8 -12 -36 -24 -62 -11 -27 -18 -48 -16 -48 4 0 -3 -22 -31 -95 -4 -11 -8
-23 -9 -27 -2 -5 -4 -10 -5 -13 -1 -3 -3 -8 -4 -12 -1 -5 -10 -33 -21 -63 -10
-30 -20 -59 -22 -65 -1 -5 -94 -284 -206 -618 -113 -334 -204 -610 -204 -613
-1 -3 -7 -24 -15 -47 -17 -47 -23 -66 -102 -317 -63 -200 -86 -280 -93 -331
-4 -32 -2 -37 19 -42 13 -3 498 -6 1079 -6 l1057 0 20 57 c22 61 102 300 106
317 2 6 6 17 9 25 8 20 89 262 92 275 1 5 7 22 13 37 10 24 45 135 47 148 0 3
3 10 6 15 6 10 41 112 45 130 1 6 18 57 39 115 20 58 38 112 40 120 2 8 15 49
30 90 14 41 28 82 30 90 2 8 18 56 35 105 18 50 33 97 35 105 6 23 188 564
192 569 1 2 794 5 1760 6 967 2 1784 5 1815 9 105 11 176 22 210 32 9 3 25 6
35 8 10 2 41 13 70 25 139 55 219 120 310 251 36 53 123 222 128 250 2 11 10
34 19 52 8 18 64 186 126 373 61 187 114 347 117 355 3 8 7 20 9 25 1 6 30 93
64 195 34 102 62 190 64 195 1 6 13 42 26 80 13 39 25 72 25 75 1 3 4 12 7 20
23 61 39 110 43 126 2 11 11 36 19 57 9 20 14 37 11 37 -2 0 4 20 15 45 11 25
20 49 20 53 0 4 61 192 136 417 75 226 137 415 138 420 1 6 4 15 8 20 3 6 9
33 13 60 5 28 10 57 13 65 2 8 5 71 7 139 3 145 -12 224 -61 327 -34 73 -125
176 -180 204 -16 8 -51 27 -77 42 -26 16 -52 28 -58 28 -5 0 -28 9 -52 19 -39
18 -112 41 -147 46 -8 2 -28 6 -45 11 -28 8 -6017 18 -6026 10z m4428 -1003
c-3 -5 -35 -102 -72 -218 -36 -115 -75 -235 -85 -265 -10 -30 -41 -129 -70
-220 -28 -91 -53 -171 -55 -178 -3 -7 -5 -16 -6 -20 -1 -4 -7 -23 -14 -42 -15
-40 -115 -347 -120 -370 -5 -23 -114 -359 -132 -408 -10 -27 -26 -48 -42 -56
-19 -9 -106 -13 -331 -15 -168 -1 -312 -2 -320 -2 -81 2 -154 0 -161 -4 -4 -3
-10 -1 -14 5 -4 6 -11 7 -17 4 -5 -3 -263 -7 -573 -8 l-562 -2 7 25 c5 15 15
45 24 69 8 23 16 46 17 50 2 9 9 32 16 52 3 8 48 139 99 290 52 151 96 281 99
288 2 7 5 14 5 17 0 3 25 76 56 162 49 141 108 315 219 643 58 171 67 191 89
200 26 11 1949 13 1943 3z"/>
<path d="M855 7047 c-54 -161 -102 -300 -107 -310 -5 -10 -11 -26 -13 -35 -1
-9 -28 -91 -59 -181 -31 -90 -56 -168 -56 -173 0 -7 119 -9 348 -5 332 5 363
7 558 41 46 9 175 48 232 71 129 53 255 132 344 219 51 50 158 179 158 191 0
4 11 20 24 36 29 34 134 241 165 324 13 33 27 68 32 77 5 10 9 22 9 28 0 6
-259 10 -768 10 l-768 -1 -99 -292z"/>
<path d="M331 5499 c-6 -16 -15 -41 -20 -56 -5 -16 -13 -37 -17 -48 -4 -11 -8
-22 -9 -25 0 -3 -12 -36 -25 -75 -13 -38 -25 -74 -26 -80 -4 -15 -210 -615
-223 -649 -6 -16 -10 -31 -7 -33 12 -13 644 -2 731 12 17 2 52 7 79 10 28 4
53 8 56 10 4 2 22 7 41 10 87 15 222 60 309 102 197 97 368 262 492 478 62
108 169 352 161 367 -2 4 -347 7 -767 7 l-764 0 -11 -30z"/>
</g>
</svg>
